<svg xmlns="http://www.w3.org/2000/svg" width="79" height="146" viewBox="0 0 79 146">
  <g id="右草" transform="translate(0 0)">
    <path id="パス_6899" data-name="パス 6899" d="M.706,0c-3.93,13.482,9.789,15.892,10.723,15.228C12.223,14.667,14.8.561.706,0Z" transform="matrix(-0.966, -0.259, 0.259, -0.966, 58.266, 17.946)" fill="#d5cabb"/>
    <path id="パス_6900" data-name="パス 6900" d="M8.48,0c5.435,10.326-5.178,19.829-6.3,19.624S-4.6,2.552,8.48,0Z" transform="matrix(-0.966, -0.259, 0.259, -0.966, 68.351, 33.055)" fill="#d5cabb"/>
    <path id="パス_6901" data-name="パス 6901" d="M0,2.368C9.292-5.2,18.609,7.7,18.461,8.69S3.675,13.769,0,2.368Z" transform="matrix(-0.966, -0.259, 0.259, -0.966, 61.203, 40.629)" fill="#d5cabb"/>
    <path id="パス_6902" data-name="パス 6902" d="M11.106,0c4.841,12.234-7.889,22.6-9.125,22.236C.741,21.885-4.92,2.857,11.106,0Z" transform="matrix(-0.966, -0.259, 0.259, -0.966, 73.242, 53.356)" fill="#d5cabb"/>
    <path id="パス_6903" data-name="パス 6903" d="M0,1.882C10.952-5.223,21.673,10,21.4,11.058S2.642,14.657,0,1.882Z" transform="matrix(-0.966, -0.259, 0.259, -0.966, 61.589, 61.149)" fill="#d5cabb"/>
    <path id="パス_6904" data-name="パス 6904" d="M14.173.149C16.129,13.157,1.557,20.883.433,20.246S-.7-1.989,14.173.149Z" transform="matrix(-0.966, -0.259, 0.259, -0.966, 73.413, 76.382)" fill="#d5cabb"/>
    <path id="パス_6905" data-name="パス 6905" d="M19.775,13.776C19.265,14.748-.3,13.8,0,.76,12.276-3.69,20.28,12.812,19.775,13.776Z" transform="matrix(-0.966, -0.259, 0.259, -0.966, 58, 79.491)" fill="#d5cabb"/>
    <path id="パス_6906" data-name="パス 6906" d="M17.443.433C17.749,13.7,1.088,16.27.108,15.434S4.9-2.953,17.443.433Z" transform="matrix(-0.966, -0.259, 0.259, -0.966, 70.072, 96.034)" fill="#d5cabb"/>
    <path id="パス_6907" data-name="パス 6907" d="M16.5,16.209C15.815,17.062-2.494,12.846.287.1,14.26-1.43,17.175,15.353,16.5,16.209Z" transform="matrix(-0.966, -0.259, 0.259, -0.966, 50.791, 97.538)" fill="#d5cabb"/>
    <path id="パス_6908" data-name="パス 6908" d="M20.182,1.112C18.226,14.416.892,14.319.054,13.313-.787,12.326,8.233-4.4,20.182,1.112Z" transform="matrix(-0.966, -0.259, 0.259, -0.966, 63.422, 113.842)" fill="#d5cabb"/>
    <path id="パス_6909" data-name="パス 6909" d="M13.722,19.034C12.9,19.776-4.042,12.262.9,0,15.121.854,14.549,18.3,13.722,19.034Z" transform="matrix(-0.966, -0.259, 0.259, -0.966, 40.29, 114.44)" fill="#d5cabb"/>
    <path id="パス_6910" data-name="パス 6910" d="M23.219,2.408C18.414,15.46.656,11.581.023,10.384S12.288-5.71,23.219,2.408Z" transform="matrix(-0.966, -0.259, 0.259, -0.966, 53.291, 130.802)" fill="#d5cabb"/>
    <path id="パス_6911" data-name="パス 6911" d="M2,0C16.373,3.232,10.82,20.842,9.854,21.451S-5.09,11.692,2,0Z" transform="matrix(-0.966, -0.259, 0.259, -0.966, 26.941, 128.211)" fill="#d5cabb"/>
    <path id="パス_6912" data-name="パス 6912" d="M.006,6.9C-.36,5.6,16.113-6.113,24.969,4.228,17.391,15.895.358,8.2.006,6.9Z" transform="matrix(-0.966, -0.259, 0.259, -0.966, 36.752, 146)" fill="#d5cabb"/>
    <path id="パス_6913" data-name="パス 6913" d="M7.076,23.817C6,24.21-5.834,9.831,3.671,0,16.969,6.341,8.152,23.438,7.076,23.817Z" transform="matrix(-0.966, -0.259, 0.259, -0.966, 10.562, 139.669)" fill="#d5cabb"/>
  </g>
</svg>
