<svg xmlns="http://www.w3.org/2000/svg" width="79" height="146" viewBox="0 0 79 146">
  <g id="左草" transform="translate(-251.566 -646.37)">
    <path id="パス_6899" data-name="パス 6899" d="M.706,15.327C-3.224,1.846,10.495-.565,11.429.1,12.223.66,14.8,14.766.706,15.327Z" transform="matrix(0.966, -0.259, 0.259, 0.966, 268.333, 649.511)" fill="#d5cabb"/>
    <path id="パス_6900" data-name="パス 6900" d="M8.48,19.627C13.915,9.3,3.3-.2,2.178,0S-4.6,17.075,8.48,19.627Z" transform="matrix(0.966, -0.259, 0.259, 0.966, 257.135, 660.466)" fill="#d5cabb"/>
    <path id="パス_6901" data-name="パス 6901" d="M0,7.847c9.292,7.566,18.609-5.329,18.461-6.321S3.675-3.554,0,7.847Z" transform="matrix(0.966, -0.259, 0.259, 0.966, 266.718, 677.131)" fill="#d5cabb"/>
    <path id="パス_6902" data-name="パス 6902" d="M11.106,22.246C15.947,10.012,3.218-.359,1.982.01.741.36-4.92,19.389,11.106,22.246Z" transform="matrix(0.966, -0.259, 0.259, 0.966, 251.566, 678.238)" fill="#d5cabb"/>
    <path id="パス_6903" data-name="パス 6903" d="M0,10.108C10.952,17.213,21.673,1.993,21.4.933S2.642-2.666,0,10.108Z" transform="matrix(0.966, -0.259, 0.259, 0.966, 265.874, 695.936)" fill="#d5cabb"/>
    <path id="パス_6904" data-name="パス 6904" d="M14.173,20.134C16.129,7.125,1.557-.6.433.037S-.7,22.271,14.173,20.134Z" transform="matrix(0.966, -0.259, 0.259, 0.966, 251.904, 703.161)" fill="#d5cabb"/>
    <path id="パス_6905" data-name="パス 6905" d="M19.775.28C19.265-.692-.3.253,0,13.3,12.276,17.745,20.28,1.244,19.775.28Z" transform="matrix(0.966, -0.259, 0.259, 0.966, 268.928, 712.284)" fill="#d5cabb"/>
    <path id="パス_6906" data-name="パス 6906" d="M17.443,15.144C17.749,1.878,1.088-.693.108.142S4.9,18.529,17.443,15.144Z" transform="matrix(0.966, -0.259, 0.259, 0.966, 256.462, 727.359)" fill="#d5cabb"/>
    <path id="パス_6907" data-name="パス 6907" d="M16.5.106C15.815-.748-2.494,3.469.287,16.216,14.26,17.745,17.175.961,16.5.106Z" transform="matrix(0.966, -0.259, 0.259, 0.966, 275.552, 728.149)" fill="#d5cabb"/>
    <path id="パス_6908" data-name="パス 6908" d="M20.182,12.6C18.226-.7.892-.607.054.4-.787,1.386,8.233,18.112,20.182,12.6Z" transform="matrix(0.966, -0.259, 0.259, 0.966, 263.595, 746.967)" fill="#d5cabb"/>
    <path id="パス_6909" data-name="パス 6909" d="M13.722.05C12.9-.692-4.042,6.823.9,19.085,15.121,18.231,14.549.783,13.722.05Z" transform="matrix(0.966, -0.259, 0.259, 0.966, 285.336, 742.375)" fill="#d5cabb"/>
    <path id="パス_6910" data-name="パス 6910" d="M23.219,9.45C18.414-3.6.656.278.023,1.475S12.288,17.569,23.219,9.45Z" transform="matrix(0.966, -0.259, 0.259, 0.966, 274.205, 765.717)" fill="#d5cabb"/>
    <path id="パス_6911" data-name="パス 6911" d="M2,21.478C16.373,18.246,10.82.636,9.854.027S-5.09,9.786,2,21.478Z" transform="matrix(0.966, -0.259, 0.259, 0.966, 298.065, 753.836)" fill="#d5cabb"/>
    <path id="パス_6912" data-name="パス 6912" d="M.006,3.693C-.36,4.987,16.113,16.7,24.969,6.364,17.391-5.3.358,2.387.006,3.693Z" transform="matrix(0.966, -0.259, 0.259, 0.966, 291.072, 782.139)" fill="#d5cabb"/>
    <path id="パス_6913" data-name="パス 6913" d="M7.076.008C6-.385-5.834,13.994,3.671,23.825,16.969,17.484,8.152.387,7.076.008Z" transform="matrix(0.966, -0.259, 0.259, 0.966, 313.837, 763.026)" fill="#d5cabb"/>
  </g>
</svg>
