<svg xmlns="http://www.w3.org/2000/svg" width="168" height="47" viewBox="0 0 168 47">
  <defs>
    <style>
      .cls-1 {
        fill: #fff;
      }
    </style>
  </defs>
  <g id="ロゴ" transform="translate(-416.184 -226.69)">
    <g id="グループ_114" data-name="グループ 114" transform="translate(416.184 226.69)">
      <path id="パス_6333" data-name="パス 6333" class="cls-1" d="M434.9,250.536l-16.59-9.584v-.371l16.634-12.116a.5.5,0,1,0-.592-.813l-16.042,11.684V227.979a.5.5,0,1,0-1.006,0v12.09l-.3.215-.828.6,1.123.649v9.361a.5.5,0,1,0,1.006,0v-8.779l16.086,9.294a.5.5,0,0,0,.5-.872Z" transform="translate(-416.184 -226.997)"/>
      <path id="パス_6334" data-name="パス 6334" class="cls-1" d="M471.413,251.364a11.944,11.944,0,1,1,11.944-11.944A11.958,11.958,0,0,1,471.413,251.364Zm0-22.882A10.938,10.938,0,1,0,482.35,239.42,10.951,10.951,0,0,0,471.413,228.482Z" transform="translate(-433.116 -226.997)"/>
      <path id="パス_6335" data-name="パス 6335" class="cls-1" d="M629.445,227.618a.5.5,0,0,0-.71.057l-9.395,11.042-9.01-11.159a.5.5,0,1,0-.783.633l9.28,11.494.062,11.392a.5.5,0,0,0,.5.5h0a.5.5,0,0,0,.5-.506l-.063-11.381,9.667-11.362A.5.5,0,0,0,629.445,227.618Z" transform="translate(-491.777 -226.956)"/>
      <path id="パス_6336" data-name="パス 6336" class="cls-1" d="M676.481,250.391l-12.015-23.7L656,243.25h-2.661a.5.5,0,1,0,0,1.006h2.147l-3.167,6.2a.5.5,0,0,0,.219.677.5.5,0,0,0,.229.055.5.5,0,0,0,.449-.274l3.4-6.654h15.626l3.341,6.589a.5.5,0,1,0,.9-.455Zm-19.349-7.141,7.33-14.341,7.271,14.341Z" transform="translate(-508.536 -226.69)"/>
      <path id="パス_6337" data-name="パス 6337" class="cls-1" d="M524.952,251.4c-.067,0-.108,0-.119,0H517.3V240.579h-2.166a.5.5,0,0,1,0-1.006H517.3v-12.2h7.988a6.873,6.873,0,0,1,4.973,2.007,6.873,6.873,0,0,1,.232,8.761,6.461,6.461,0,0,1-2.831,1.987,4.845,4.845,0,0,1,1.262.872,6,6,0,0,1,1.635,4.513,5.8,5.8,0,0,1-1.626,4.383A6,6,0,0,1,524.952,251.4Zm-6.649-1.008h6.552a5.09,5.09,0,0,0,3.384-1.234,4.849,4.849,0,0,0,1.309-3.65,5.05,5.05,0,0,0-1.317-3.78,4.5,4.5,0,0,0-2.952-1.152H518.3Zm0-10.821h6.983a5.992,5.992,0,0,0,4.422-2.07,5.606,5.606,0,0,0,1.223-3.182,5.67,5.67,0,0,0-1.415-4.262,5.942,5.942,0,0,0-4.211-1.683h-7Z" transform="translate(-454.69 -226.954)"/>
      <path id="パス_6338" data-name="パス 6338" class="cls-1" d="M568.906,251.573a11.944,11.944,0,1,1,11.944-11.945A11.958,11.958,0,0,1,568.906,251.573Zm0-22.882a10.938,10.938,0,1,0,10.938,10.938A10.95,10.95,0,0,0,568.906,228.69Z" transform="translate(-471.254 -227.078)"/>
    </g>
    <g id="グループ_115" data-name="グループ 115" transform="translate(480.448 262.405)">
      <path id="パス_6339" data-name="パス 6339" class="cls-1" d="M527.5,285.426c.265-.21.482.268.434.362a37.127,37.127,0,0,0-4.61,8.181c-.434,1.068-.507,2.04-.6,2.136a1.773,1.773,0,0,1-.965-.439,56.424,56.424,0,0,1,5.261-9.42,22.573,22.573,0,0,1-4.151,2.269c-.072.019-.169-.134-.121-.152A29.005,29.005,0,0,0,527.5,285.426Z" transform="translate(-521.755 -285.374)"/>
      <path id="パス_6340" data-name="パス 6340" class="cls-1" d="M543.476,286.493c.121.077.193.153.144.248a27.819,27.819,0,0,0-3.982,7.323c-.435,1.068-.507,2.04-.6,2.136a1.672,1.672,0,0,1-.917-.439,58.208,58.208,0,0,1,3.041-6.2,5.343,5.343,0,0,1-3.427,1.754,1.4,1.4,0,0,1-1.448-1.506,4.526,4.526,0,0,1,7.192-3.319Zm-.531.4a3.762,3.762,0,0,0-2.341-.973c-2.123,0-3.523,2.441-3.523,3.813a.948.948,0,0,0,1.062.992,5.539,5.539,0,0,0,3.355-1.678c.362-.61.8-1.22,1.255-1.85Z" transform="translate(-527.427 -285.468)"/>
      <path id="パス_6341" data-name="パス 6341" class="cls-1" d="M558.338,296a15.662,15.662,0,0,1-5.044-1.048,7.76,7.76,0,0,1-2.39.953c-.772,0-1.834-.572-1.834-1.2,0-.744,1.061-.974,1.785-.974a8.11,8.11,0,0,1,2.752.706c2.341-1.392,5.116-3.718,5.116-6.426,0-1.468-.748-2-1.641-2a3.385,3.385,0,0,0-3.451,2.937.9.9,0,0,0,.966.992c.121,0,.072.171,0,.171-1.158.1-1.617-.324-1.617-.953,0-1.315,2.076-3.509,4.175-3.509a2.3,2.3,0,0,1,2.39,2.4c0,2.613-3.065,5.092-5.575,6.541a12.7,12.7,0,0,0,4.369,1.315C558.387,295.907,558.387,296,558.338,296Zm-8.592-1.392a1.2,1.2,0,0,0,1.062,1.163,12.25,12.25,0,0,0,2.148-.954,12.343,12.343,0,0,0-2.558-.781C549.94,294.038,549.746,294.305,549.746,294.611Z" transform="translate(-532.42 -285.481)"/>
      <path id="パス_6342" data-name="パス 6342" class="cls-1" d="M578.238,286.451c.048,0,.145.115.073.133a11.885,11.885,0,0,1-5.454.153c-.483.915-1.448,2.631-1.882,3.738a4.745,4.745,0,0,1,2.245-.535c1.979,0,3.113,1.125,3.113,2.288,0,1.945-2.582,4.634-6.274,4.634a8.218,8.218,0,0,1-2.461-.382c-.024-.019.048-.1.072-.1a6.874,6.874,0,0,0,1.931.267c3.5,0,5.913-2.365,5.913-4.215,0-1.163-.845-2.059-2.534-2.288a2.951,2.951,0,0,0-2.22,1.087c-.1.057-.724.19-.676.1s2.076-3.852,2.655-5.434A10.626,10.626,0,0,0,578.238,286.451Z" transform="translate(-539.65 -285.579)"/>
    </g>
  </g>
</svg>
