<svg xmlns="http://www.w3.org/2000/svg" width="26.8" height="18.722" viewBox="0 0 26.8 18.722">
  <defs>
    <style>
      .cls-1, .cls-2, .cls-3 {
        fill: none;
      }

      .cls-1, .cls-2 {
        stroke: #4d5971;
        stroke-width: 1.8px;
      }

      .cls-1 {
        stroke-linecap: round;
      }

      .cls-4, .cls-5 {
        stroke: none;
      }

      .cls-5 {
        fill: #4d5971;
      }
    </style>
  </defs>
  <g id="グループ_850" data-name="グループ 850" transform="translate(-1287.6 -104.6)">
    <path id="パス_6928" data-name="パス 6928" class="cls-1" d="M1288.312,112.922v10.422h21V113.213" transform="translate(2.188 -0.922)"/>
    <line id="線_155" data-name="線 155" class="cls-2" x1="1" y2="6" transform="translate(1288.5 105.5)"/>
    <line id="線_155-2" data-name="線 155" class="cls-2" x1="1" y2="6" transform="translate(1293.5 105.5)"/>
    <line id="線_155-3" data-name="線 155" class="cls-2" y2="6" transform="translate(1298.5 105.5)"/>
    <line id="線_155-4" data-name="線 155" class="cls-2" y2="6" transform="translate(1303.5 105.5)"/>
    <line id="線_155-5" data-name="線 155" class="cls-2" x2="1" y2="6" transform="translate(1307.5 105.5)"/>
    <line id="線_155-6" data-name="線 155" class="cls-2" x2="1" y2="6" transform="translate(1312.5 105.5)"/>
    <line id="線_157" data-name="線 157" class="cls-1" x2="23" transform="translate(1289.5 105.5)"/>
    <path id="パス_6929" data-name="パス 6929" class="cls-1" d="M0,0H25" transform="translate(1288.5 111.5)"/>
    <g id="合体_7" data-name="合体 7" class="cls-3" transform="translate(-3417.5 -100.5)">
      <path class="cls-4" d="M4714,223v-6h.027c.249-1.688,2.157-3,4.472-3s4.224,1.313,4.473,3H4723v6Z"/>
      <path class="cls-5" d="M 4721.2001953125 221.1996612548828 L 4721.2001953125 217.3172302246094 L 4721.19189453125 217.2626037597656 C 4721.087890625 216.5560302734375 4719.98095703125 215.7995147705078 4718.49951171875 215.7995147705078 C 4717.0185546875 215.7995147705078 4715.912109375 216.5560302734375 4715.80810546875 217.2626037597656 L 4715.7998046875 217.3172302246094 L 4715.7998046875 217.3750152587891 L 4715.7998046875 221.1996612548828 L 4721.2001953125 221.1996612548828 M 4723 222.9996643066406 L 4714 222.9996643066406 L 4714 217.3750152587891 L 4714 216.9998626708984 L 4714.02734375 216.9998626708984 C 4714.2763671875 215.3121337890625 4716.18408203125 213.99951171875 4718.49951171875 213.99951171875 C 4720.81591796875 213.99951171875 4722.7236328125 215.3121337890625 4722.97265625 216.9998626708984 L 4723 216.9998626708984 L 4723 222.9996643066406 Z"/>
    </g>
  </g>
</svg>
