<svg id="ロゴ" xmlns="http://www.w3.org/2000/svg" width="191" height="27" viewBox="0 0 191 27">
  <path id="パス_6327" data-name="パス 6327" d="M439.152,473.443l-18.893-10.5v-.406L439.2,449.264a.537.537,0,0,0,.126-.77.587.587,0,0,0-.8-.121l-18.269,12.8V448.731a.574.574,0,0,0-1.146,0v13.245l-.335.235-.943.657,1.278.711v10.255a.573.573,0,0,0,1.146,0v-9.618L438.578,474.4a.588.588,0,0,0,.286.074.577.577,0,0,0,.5-.276A.54.54,0,0,0,439.152,473.443Z" transform="translate(-417.835 -447.634)" fill="#4d5971"/>
  <path id="パス_6328" data-name="パス 6328" d="M474.722,474.345a13.092,13.092,0,1,1,13.6-13.082A13.365,13.365,0,0,1,474.722,474.345Zm0-25.063a11.989,11.989,0,1,0,12.456,11.98A12.239,12.239,0,0,0,474.722,449.282Z" transform="translate(-431.168 -447.634)" fill="#4d5971"/>
  <path id="パス_6329" data-name="パス 6329" d="M633.874,448.346a.591.591,0,0,0-.808.063l-10.7,12.1-10.261-12.23a.588.588,0,0,0-.806-.082.537.537,0,0,0-.085.776l10.568,12.6.071,12.484a.563.563,0,0,0,.573.548h0a.562.562,0,0,0,.571-.554l-.071-12.473,11.009-12.452A.538.538,0,0,0,633.874,448.346Z" transform="translate(-477.351 -447.602)" fill="#4d5971"/>
  <path id="パス_6330" data-name="パス 6330" d="M681.494,473.379l-13.683-25.985-9.64,18.156h-3.03a.552.552,0,1,0,0,1.1h2.444l-3.606,6.793a.543.543,0,0,0,.249.743.593.593,0,0,0,.26.06.576.576,0,0,0,.511-.3l3.873-7.3h17.8l3.8,7.225a.584.584,0,0,0,.771.243A.543.543,0,0,0,681.494,473.379Zm-22.035-7.829,8.348-15.724,8.28,15.724Z" transform="translate(-490.556 -447.394)" fill="#4d5971"/>
  <path id="パス_6331" data-name="パス 6331" d="M528.037,474.4c-.076,0-.123,0-.136,0h-8.582V462.546h-2.467a.552.552,0,1,1,0-1.1h2.467V448.074h9.1a8.01,8.01,0,0,1,5.663,2.2,7.311,7.311,0,0,1,.264,9.6,7.37,7.37,0,0,1-3.224,2.177,5.543,5.543,0,0,1,1.438.956,6.427,6.427,0,0,1,1.862,4.944,6.221,6.221,0,0,1-1.853,4.8A7,7,0,0,1,528.037,474.4Zm-7.572-1.1h7.462a5.954,5.954,0,0,0,3.854-1.352,5.2,5.2,0,0,0,1.49-4,5.411,5.411,0,0,0-1.5-4.141,5.245,5.245,0,0,0-3.363-1.263h-7.944Zm0-11.856h7.892c.009,0,.025,0,.06,0a6.951,6.951,0,0,0,5.036-2.268,6.239,6.239,0,0,0-.218-8.155,6.935,6.935,0,0,0-4.8-1.844h-7.976Z" transform="translate(-448.149 -447.601)" fill="#4d5971"/>
  <path id="パス_6332" data-name="パス 6332" d="M572.215,474.554a13.093,13.093,0,1,1,13.6-13.083A13.365,13.365,0,0,1,572.215,474.554Zm0-25.063a11.989,11.989,0,1,0,12.456,11.98A12.239,12.239,0,0,0,572.215,449.49Z" transform="translate(-461.199 -447.698)" fill="#4d5971"/>
</svg>
