<svg xmlns="http://www.w3.org/2000/svg" width="438" height="122" viewBox="0 0 438 122">
  <g id="グループ_117" data-name="グループ 117" transform="translate(-416.184 -226.69)">
    <g id="グループ_114" data-name="グループ 114" transform="translate(416.184 226.69)">
      <path id="パス_6333" data-name="パス 6333" d="M465.018,287.638l-43.281-25v-.967l43.4-31.609a1.312,1.312,0,1,0-1.546-2.121l-41.851,30.482V228.788a1.312,1.312,0,1,0-2.624,0v31.542l-.77.56-2.16,1.565,2.93,1.692v24.421a1.312,1.312,0,1,0,2.624,0v-22.9L463.7,289.912a1.313,1.313,0,1,0,1.314-2.274Z" transform="translate(-416.184 -226.226)" fill="#fff"/>
      <path id="パス_6334" data-name="パス 6334" d="M490.63,289.8a31.161,31.161,0,1,1,31.161-31.161A31.2,31.2,0,0,1,490.63,289.8Zm0-59.7a28.536,28.536,0,1,0,28.535,28.537A28.57,28.57,0,0,0,490.63,230.1Z" transform="translate(-390.772 -226.226)" fill="#fff"/>
      <path id="パス_6335" data-name="パス 6335" d="M661.638,228.015a1.316,1.316,0,0,0-1.851.149l-24.51,28.809L611.77,227.859a1.313,1.313,0,1,0-2.042,1.651L633.94,259.5l.162,29.72a1.314,1.314,0,0,0,1.314,1.306h.006a1.314,1.314,0,0,0,1.307-1.32l-.164-29.693,25.221-29.644A1.313,1.313,0,0,0,661.638,228.015Z" transform="translate(-302.711 -226.288)" fill="#fff"/>
      <path id="パス_6336" data-name="パス 6336" d="M715.442,288.523,684.1,226.69l-22.084,43.2h-6.942a1.313,1.313,0,1,0,0,2.626h5.6l-8.263,16.164a1.313,1.313,0,0,0,.571,1.767,1.3,1.3,0,0,0,.6.145,1.314,1.314,0,0,0,1.17-.716l8.873-17.36h40.766L713.1,289.71a1.312,1.312,0,1,0,2.341-1.186Zm-50.48-18.631,19.123-37.416,18.969,37.416Z" transform="translate(-277.584 -226.69)" fill="#fff"/>
      <path id="パス_6337" data-name="パス 6337" d="M541.563,290.074c-.175,0-.282,0-.31-.006l-19.661,0V261.838H515.94a1.313,1.313,0,0,1,0-2.626h5.652V227.374h20.84c.253-.017,7.866-.3,12.974,5.237a17.93,17.93,0,0,1,.6,22.858,16.855,16.855,0,0,1-7.387,5.184,12.638,12.638,0,0,1,3.294,2.276c2.829,2.72,4.265,6.683,4.265,11.775,0,4.9-1.428,8.747-4.243,11.436A15.648,15.648,0,0,1,541.563,290.074Zm-17.346-2.63h17.094c.115,0,5.293.177,8.83-3.219,2.265-2.175,3.414-5.379,3.414-9.521,0-4.337-1.156-7.654-3.437-9.862a11.727,11.727,0,0,0-7.7-3.006c-.037,0-.067,0-.111,0l-.047,0-18.041,0Zm0-28.231H542.3c.021,0,.057,0,.138,0,1.9-.049,7.63-.611,11.538-5.4a14.624,14.624,0,0,0,3.192-8.3,14.793,14.793,0,0,0-3.691-11.118c-4.261-4.618-10.926-4.407-10.986-4.391H524.218Z" transform="translate(-358.374 -226.291)" fill="#fff"/>
      <path id="パス_6338" data-name="パス 6338" d="M588.123,290.007a31.162,31.162,0,1,1,31.161-31.162A31.2,31.2,0,0,1,588.123,290.007Zm0-59.7a28.536,28.536,0,1,0,28.536,28.535A28.567,28.567,0,0,0,588.123,230.31Z" transform="translate(-333.534 -226.103)" fill="#fff"/>
    </g>
    <g id="グループ_115" data-name="グループ 115" transform="translate(583.696 319.249)">
      <path id="パス_6339" data-name="パス 6339" d="M536.741,285.511c.692-.547,1.258.7,1.132.945A96.86,96.86,0,0,0,525.847,307.8c-1.132,2.786-1.322,5.323-1.574,5.572a4.625,4.625,0,0,1-2.518-1.145c1.889-3.733,6.611-15.024,13.726-24.577a58.9,58.9,0,0,1-10.83,5.921c-.188.049-.441-.348-.315-.4C526.791,292.278,535.1,287,536.741,285.511Z" transform="translate(-521.755 -285.374)" fill="#fff"/>
      <path id="パス_6340" data-name="パス 6340" d="M555.047,287.9c.315.2.5.4.377.647a72.576,72.576,0,0,0-10.388,19.1c-1.134,2.786-1.323,5.323-1.574,5.572a4.363,4.363,0,0,1-2.392-1.145c1.447-2.885,3.651-9.054,7.932-16.169-2.518,2.538-5.917,4.577-8.941,4.577a3.639,3.639,0,0,1-3.777-3.93c0-4.477,5.162-10.946,11.9-10.946A12.4,12.4,0,0,1,555.047,287.9Zm-1.385,1.046a9.814,9.814,0,0,0-6.108-2.538c-5.539,0-9.192,6.368-9.192,9.949a2.472,2.472,0,0,0,2.77,2.589c2.9,0,6.36-2.09,8.753-4.378.943-1.592,2.077-3.184,3.273-4.827Z" transform="translate(-513.178 -285.23)" fill="#fff"/>
      <path id="パス_6341" data-name="パス 6341" d="M573.249,312.661c-4.661,0-9.319-1.392-13.16-2.735-2.96,1.592-5.415,2.487-6.234,2.487-2.015,0-4.784-1.492-4.784-3.133,0-1.942,2.769-2.54,4.658-2.54a21.155,21.155,0,0,1,7.179,1.842c6.107-3.631,13.348-9.7,13.348-16.765,0-3.831-1.951-5.224-4.281-5.224-5.6,0-9,4.628-9,7.662a2.347,2.347,0,0,0,2.519,2.588c.315,0,.188.447,0,.447-3.022.248-4.219-.844-4.219-2.487,0-3.432,5.415-9.154,10.892-9.154,5.228,0,6.234,4.427,6.234,6.267,0,6.816-8,13.286-14.545,17.066,3.841,1.592,7.87,3.432,11.4,3.432C573.374,312.413,573.374,312.661,573.249,312.661Zm-22.415-3.631c0,1.342,1.259,3.085,2.77,3.034a31.948,31.948,0,0,0,5.6-2.489c-3.023-1.043-5.415-2.039-6.675-2.039C551.337,307.537,550.833,308.234,550.833,309.031Z" transform="translate(-505.63 -285.212)" fill="#fff"/>
      <path id="パス_6342" data-name="パス 6342" d="M595.369,287.34c.126,0,.379.3.189.348a31.009,31.009,0,0,1-14.23.4c-1.26,2.387-3.777,6.864-4.911,9.752a12.379,12.379,0,0,1,5.856-1.395c5.162,0,8.122,2.934,8.122,5.97,0,5.075-6.737,12.09-16.369,12.09a21.442,21.442,0,0,1-6.422-1c-.064-.049.124-.248.188-.248a17.934,17.934,0,0,0,5.037.7c9.13,0,15.426-6.17,15.426-11,0-3.034-2.2-5.372-6.611-5.97a7.7,7.7,0,0,0-5.792,2.837c-.253.148-1.889.5-1.763.248s5.415-10.049,6.926-14.178A27.722,27.722,0,0,0,595.369,287.34Z" transform="translate(-494.697 -285.063)" fill="#fff"/>
    </g>
  </g>
</svg>
